<svg width="370" height="100" viewBox="0 0 370 100" fill="none" xmlns="http://www.w3.org/2000/svg">
<path d="M369.1 55.8333V81.3333C369.1 90.75 364.017 97.9167 353.017 99.5833C351.35 99.8333 349.6 100 347.683 100H285.35C283.933 99.9167 282.683 99.8333 281.433 99.6667C270.433 98 265.267 90.8333 265.267 81.4167V55.8333H278.6V80.9167C278.6 85.0833 281.35 88.4167 286.683 88.4167H347.683C350.35 88.4167 352.35 87.5833 353.683 86.25C355.017 84.9167 355.683 83 355.683 80.9167V55.8333H369.1Z" fill="#333333"/>
<path d="M157.517 99.25V73.0833L147.767 99.25H141.933L132.267 73.0833V99.1667H119.1V55.8333H137.267L144.85 76.6667L152.517 55.8333H170.6V99.25H157.517Z" fill="#333333"/>
<path d="M177.683 99.25V55.8333H210.6V67.25H190.85V71.5833H210.1V83H190.85V87.75H210.6V99.1667L177.683 99.25Z" fill="#333333"/>
<path d="M245.6 99.25L229.6 77.25V99.25H216.433V55.8333H230.017L245.1 76.4167V55.8333H258.183V99.25H245.6Z" fill="#333333"/>
<path d="M119.1 44.0833V0.75H138.517C152.183 0.75 162.35 8.58333 162.35 22.4167C162.35 36.25 152.183 44.0833 138.6 44.0833H119.1ZM148.933 22.4167C148.933 16.5833 145.517 12.1667 138.517 12.1667H132.183V32.6667H138.433C145.1 32.6667 148.933 27.8333 148.933 22.4167Z" fill="#333333"/>
<path d="M180.183 0.75H167.017V44.1667H180.183V0.75Z" fill="#333333"/>
<path d="M184.85 22.4167C184.85 8.5 195.6 0 208.683 0C219.017 0 225.017 5.75 227.767 11.3333L216.683 17C215.267 13.8333 212.183 11.75 208.683 11.5833C202.35 11.5833 198.1 16.4167 198.1 22.4167C198.1 28.4167 202.433 33.3333 208.683 33.3333C211.1 33.3333 213.433 32.6667 215.433 31.4167V29.8333H207.433V18.3333H228.6V36.0833C223.6 41.75 216.35 45 208.767 44.8333C195.6 44.9167 184.85 36.3333 184.85 22.4167Z" fill="#333333"/>
<path d="M247.6 0.75H234.433V44.1667H247.6V0.75Z" fill="#333333"/>
<path d="M263.85 44.0833V12.1667H252.183V0.75H288.6V12.1667H277.017V44.0833H263.85Z" fill="#333333"/>
<path d="M322.267 44.0833L320.683 39H305.1L303.517 44.0833H288.6L304.6 0.666656H321.1L337.1 44.0833H322.267ZM312.85 13.5833L308.6 27.5833H317.183L312.85 13.5833Z" fill="#333333"/>
<path d="M339.517 44.0833V0.75H352.6V32.6667H369.1V44.0833H339.517Z" fill="#333333"/>
<path d="M98.7 0.750008V12.1644L0.199982 12.1644L0.199982 0.750003L98.7 0.750008Z" fill="#333333"/>
<path d="M98.7 99.25H87.2855L87.2855 0.750001L98.7 0.750008L98.7 99.25Z" fill="#333333"/>
<path d="M11.6144 99.25H0.199982V0.750003L11.6144 0.75L11.6144 99.25Z" fill="#333333"/>
<path d="M98.7 87.8356L98.7 99.25H0.199982V87.8356L98.7 87.8356Z" fill="#333333"/>
</svg>